<svg width="113" height="82" viewBox="0 0 113 82" fill="none" xmlns="http://www.w3.org/2000/svg">
<path d="M105.83 0C107.933 0 109.654 0.482929 110.992 1.44878C112.331 2.22145 113 3.28387 113 4.63605C113 5.98823 112.522 6.95407 111.566 7.53357C110.801 7.91992 109.176 8.49942 106.69 9.27208C98.8511 11.3969 92.7327 14.6808 88.335 19.1237C84.1286 23.3734 82.0254 28.5889 82.0254 34.7703C82.0254 38.0542 83.077 40.7585 85.1802 42.8834C87.4746 45.0083 90.3426 46.5536 93.7843 47.5194C97.4171 48.6784 100.381 50.7067 102.675 53.6043C104.97 56.3086 106.117 59.8822 106.117 64.3251C106.117 69.1543 104.109 73.3074 100.094 76.7845C96.0787 80.2615 91.4898 82 86.3274 82C77.5322 82 70.4577 79.2956 65.1041 73.8869C59.9416 68.285 57.3604 61.0412 57.3604 52.1555C57.3604 42.1107 59.7504 33.1284 64.5305 25.2085C69.3105 17.2886 75.4289 11.1072 82.8858 6.66431C90.3426 2.22144 97.9907 0 105.83 0ZM48.4695 0C50.5728 0 52.2936 0.482929 53.632 1.44878C54.9704 2.22145 55.6396 3.28387 55.6396 4.63605C55.6396 5.98823 55.1616 6.95407 54.2056 7.53357C53.4408 7.91992 51.8156 8.49942 49.3299 9.27208C41.4907 11.3969 35.3722 14.6808 30.9746 19.1237C26.7682 23.3734 24.665 28.5889 24.665 34.7703C24.665 38.0542 25.7166 40.7585 27.8198 42.8834C30.1142 45.0083 32.9822 46.5536 36.4239 47.5194C40.0567 48.6784 43.0203 50.7067 45.3147 53.6043C47.6091 56.3086 48.7563 59.8822 48.7563 64.3251C48.7563 69.1543 46.7487 73.3074 42.7335 76.7845C38.7183 80.2615 34.1294 82 28.967 82C20.1717 82 13.0973 79.2956 7.74365 73.8869C2.58122 68.285 0 61.0412 0 52.1555C0 42.1107 2.39002 33.1284 7.17005 25.2085C11.9501 17.2886 18.0685 11.1072 25.5254 6.66431C32.9822 2.22144 40.6303 0 48.4695 0Z" fill="#F2D555"/>
</svg>
